<svg width="18" height="18" viewBox="0 0 18 18" fill="none" xmlns="http://www.w3.org/2000/svg">
<path d="M14.38 7.79012L12.18 5.59012C11.9 5.31012 11.82 4.92012 11.93 4.57012C12.3 3.45012 12.5 2.25012 12.5 1.00012C12.5 0.450122 12.95 0.00012207 13.5 0.00012207H17C17.55 0.00012207 18 0.450122 18 1.00012C18 10.3901 10.39 18.0001 1 18.0001C0.45 18.0001 0 17.5501 0 17.0001V13.5101C0 12.9601 0.45 12.5101 1 12.5101C2.24 12.5101 3.45 12.3101 4.57 11.9401C4.92 11.8201 5.32 11.9101 5.59 12.1801L7.79 14.3801C10.62 12.9301 12.94 10.6201 14.38 7.79012Z" fill="#16205F"/>
</svg>
